<svg xmlns="http://www.w3.org/2000/svg">
  <symbol id="icon-idcard" viewBox="0 0 24 24">
    <g fill="none" stroke="currentColor" stroke-width="2" stroke-linecap="round" stroke-linejoin="round">
      <rect x="3" y="5" width="18" height="14" rx="2"></rect>
      <circle cx="8.5" cy="12" r="2"></circle>
      <path d="M13 10h6M13 14h6"></path>
    </g>
  </symbol>
  <symbol id="icon-bolt" viewBox="0 0 24 24">
    <polygon fill="currentColor" points="13 2 3 14 11 14 9 22 21 10 13 10"></polygon>
  </symbol>
  <symbol id="icon-sparkles" viewBox="0 0 24 24">
    <g fill="currentColor">
      <path d="M12 3l1.6 4.4L18 9l-4.4 1.6L12 15l-1.6-4.4L6 9l4.4-1.6L12 3z"></path>
      <path d="M19 14l.8 2.2 2.2.8-2.2.8-.8 2.2-.8-2.2-2.2-.8 2.2-.8L19 14z"></path>
      <path d="M5 14l.6 1.6 1.6.6-1.6.6L5 18l-.6-1.6L2.8 16.6l1.6-.6L5 14z"></path>
    </g>
  </symbol>
  <symbol id="icon-play" viewBox="0 0 24 24">
    <polygon fill="currentColor" points="9 7 19 12 9 17 9 7"></polygon>
  </symbol>
  <symbol id="icon-check-circle" viewBox="0 0 24 24">
    <g fill="none" stroke="currentColor" stroke-width="2" stroke-linecap="round" stroke-linejoin="round">
      <circle cx="12" cy="12" r="9"></circle>
      <path d="M8 12l2.5 2.5L16 9"></path>
    </g>
  </symbol>
  <symbol id="icon-building" viewBox="0 0 24 24">
    <g fill="none" stroke="currentColor" stroke-width="2" stroke-linecap="round" stroke-linejoin="round">
      <rect x="3" y="4" width="18" height="16" rx="2"></rect>
      <path d="M7 8h2M7 12h2M7 16h2M11 8h2M11 12h2M11 16h2M15 8h2M15 12h2M15 16h2"></path>
    </g>
  </symbol>
  <symbol id="icon-palette" viewBox="0 0 24 24">
    <g fill="none" stroke="currentColor" stroke-width="2" stroke-linecap="round" stroke-linejoin="round">
      <path d="M12 3a9 9 0 0 0 0 18h2a2 2 0 0 0 0-4h-1a1 1 0 0 1 0-2h3a4 4 0 0 0 0-8h-4"></path>
      <circle cx="7.5" cy="10" r="1"></circle>
      <circle cx="9.5" cy="6.5" r="1"></circle>
      <circle cx="5.5" cy="13.5" r="1"></circle>
    </g>
  </symbol>
  <symbol id="icon-users" viewBox="0 0 24 24">
    <g fill="none" stroke="currentColor" stroke-width="2" stroke-linecap="round" stroke-linejoin="round">
      <circle cx="9" cy="8" r="3"></circle>
      <circle cx="17" cy="9" r="2"></circle>
      <path d="M3 20a6 6 0 0 1 12 0"></path>
      <path d="M15 20a4 4 0 0 1 6 0"></path>
    </g>
  </symbol>
  <symbol id="icon-share" viewBox="0 0 24 24">
    <g fill="none" stroke="currentColor" stroke-width="2" stroke-linecap="round" stroke-linejoin="round">
      <circle cx="18" cy="5" r="2"></circle>
      <circle cx="6" cy="12" r="2"></circle>
      <circle cx="18" cy="19" r="2"></circle>
      <path d="M8 12l8-5M8 12l8 5"></path>
    </g>
  </symbol>
  <symbol id="icon-print" viewBox="0 0 24 24">
    <g fill="none" stroke="currentColor" stroke-width="2" stroke-linecap="round" stroke-linejoin="round">
      <path d="M6 9V4h12v5"></path>
      <rect x="6" y="14" width="12" height="6"></rect>
      <path d="M6 12h12a2 2 0 0 0 2-2V9a2 2 0 0 0-2-2H6a2 2 0 0 0-2 2v1a2 2 0 0 0 2 2z"></path>
    </g>
  </symbol>
  <symbol id="icon-shield" viewBox="0 0 24 24">
    <g fill="none" stroke="currentColor" stroke-width="2" stroke-linecap="round" stroke-linejoin="round">
      <path d="M12 3l7 4v5c0 5-3.5 8-7 9-3.5-1-7-4-7-9V7l7-4z"></path>
      <path d="M9 12l2 2 4-4"></path>
    </g>
  </symbol>
  <symbol id="icon-envelope" viewBox="0 0 24 24">
    <g fill="none" stroke="currentColor" stroke-width="2" stroke-linecap="round" stroke-linejoin="round">
      <rect x="3" y="6" width="18" height="12" rx="2"></rect>
      <path d="M3 7l9 6 9-6"></path>
    </g>
  </symbol>
  <symbol id="icon-phone" viewBox="0 0 24 24">
    <g fill="none" stroke="currentColor" stroke-width="2" stroke-linecap="round" stroke-linejoin="round">
      <path d="M22 16.9v3a2 2 0 0 1-2.2 2 19.9 19.9 0 0 1-8.6-3.1 19.5 19.5 0 0 1-6-6A19.9 19.9 0 0 1 2.1 4.2 2 2 0 0 1 4.1 2h3a2 2 0 0 1 2 1.7l.6 2.9a2 2 0 0 1-.5 1.8L8 9a16 16 0 0 0 7 7l.6-.2a2 2 0 0 1 1.8-.5l2.9.6a2 2 0 0 1 1.7 2z"></path>
    </g>
  </symbol>
  <symbol id="icon-globe" viewBox="0 0 24 24">
    <g fill="none" stroke="currentColor" stroke-width="2" stroke-linecap="round" stroke-linejoin="round">
      <circle cx="12" cy="12" r="9"></circle>
      <path d="M3 12h18M12 3a15 15 0 0 1 0 18M12 3a15 15 0 0 0 0 18"></path>
    </g>
  </symbol>
  <symbol id="icon-arrow-right" viewBox="0 0 24 24">
    <g fill="none" stroke="currentColor" stroke-width="2" stroke-linecap="round" stroke-linejoin="round">
      <path d="M5 12h14"></path>
      <path d="M13 5l6 7-6 7"></path>
    </g>
  </symbol>
  <symbol id="icon-arrow-left" viewBox="0 0 24 24">
    <g fill="none" stroke="currentColor" stroke-width="2" stroke-linecap="round" stroke-linejoin="round">
      <path d="M19 12H5"></path>
      <path d="M11 5l-6 7 6 7"></path>
    </g>
  </symbol>
  <symbol id="icon-link" viewBox="0 0 24 24">
    <g fill="none" stroke="currentColor" stroke-width="2" stroke-linecap="round" stroke-linejoin="round">
      <path d="M10 13a5 5 0 0 1 0-7l2-2a5 5 0 0 1 7 7l-1 1"></path>
      <path d="M14 11a5 5 0 0 1 0 7l-2 2a5 5 0 0 1-7-7l1-1"></path>
    </g>
  </symbol>
  <symbol id="icon-spinner" viewBox="0 0 24 24">
    <path fill="none" stroke="currentColor" stroke-width="2" stroke-linecap="round" d="M21 12a9 9 0 1 1-3-6.7"></path>
  </symbol>
  <symbol id="icon-check" viewBox="0 0 24 24">
    <path fill="none" stroke="currentColor" stroke-width="2" stroke-linecap="round" stroke-linejoin="round" d="M5 13l4 4L19 7"></path>
  </symbol>
  <symbol id="icon-x" viewBox="0 0 24 24">
    <path fill="none" stroke="currentColor" stroke-width="2" stroke-linecap="round" stroke-linejoin="round" d="M6 6l12 12M18 6l-12 12"></path>
  </symbol>
</svg>
