<?xml version="1.0" encoding="UTF-8"?>
<svg id="Layer_2" data-name="Layer 2" xmlns="http://www.w3.org/2000/svg" viewBox="0 0 317.2215957642 57.5699996948">
  <defs>
    <style>
      .cls-1 {
        fill: #009bc1;
      }

      .cls-2 {
        fill: #fb0;
      }

      .cls-3 {
        fill: #824598;
      }
    </style>
  </defs>
  <g id="Layer_1-2" data-name="Layer 1">
    <g>
      <path class="cls-1" d="M6.0599975586,45.4400005341h6.050994873v6.0599994659h-6.050994873v-6.0599994659ZM6.0599975586,33.3199996948h6.050994873v6.061000824h-6.050994873v-6.061000824ZM48.470993042,33.3199996948h6.0610046387v18.1800003052h-6.0610046387v-18.1800003052ZM33.3199920654,27.2700004578v12.1199989319h-6.0599975586v-12.1199989319h-6.0590057373v24.2399997711h-3.0309906006v-18.1800003052l-6.0590057373-6.0599994659H0v30.2999992371h27.2599945068v-12.1199989319h6.0599975586v12.1199989319h6.0610046387v-24.2399997711h3.0289916992v24.2399997711h18.1800079346v-24.2399997711l-6.0599975586-6.0599994659h-21.2100067139Z"/>
      <polygon class="cls-2" points="54.5302886963 0 54.5302886963 12.1199989319 42.4102935791 12.1199989319 42.4102935791 6.0600013733 36.3502960205 0 24.2303009033 0 24.2303009033 6.0600013733 36.3502960205 6.0600013733 36.3502960205 12.1199989319 18.1702880859 12.1199989319 18.1702880859 0 .000289917 0 .000289917 18.1800003052 6.0602874756 18.1800003052 6.0602874756 6.0600013733 12.1102905273 6.0600013733 12.1102905273 21.2099990845 .000289917 21.2099990845 .000289917 27.2700004578 18.1702880859 27.2700004578 18.1702880859 18.1800003052 21.2002868652 18.1800003052 21.2002868652 21.2099990845 27.2602996826 27.2700004578 51.4902954102 27.2700004578 51.4902954102 21.2099990845 27.2602996826 21.2099990845 27.2602996826 18.1800003052 60.580291748 18.1800003052 60.580291748 6.0600013733 54.5302886963 0"/>
      <polygon class="cls-3" points="54.5201873779 27.2699012756 54.5201873779 21.2098999023 60.5802001953 21.2098999023 54.5201873779 27.2699012756"/>
    </g>
    <g>
      <g>
        <path class="cls-2" d="M65.0604629517,36.1350975037c0-.2021484375.1015625-.3037109375.3037109375-.3037109375h7.689453125c2.1884765625,0,3.80859375.5009765625,4.8623046875,1.50390625s1.5810546875,2.3359375,1.5810546875,3.99609375c0,1.17578125-.23828125,2.1123046875-.71484375,2.8115234375-.4755859375.69921875-1.0380859375,1.220703125-1.6865234375,1.5654296875v.060546875c.32421875.1220703125.6484375.314453125.97265625.5771484375.32421875.263671875.6181640625.5927734375.8818359375.98828125.2626953125.3955078125.48046875.8505859375.6533203125,1.3671875.171875.5166015625.2578125,1.08984375.2578125,1.7177734375,0,2.06640625-.6181640625,3.5966796875-1.853515625,4.5888671875-1.236328125.9931640625-2.9892578125,1.4892578125-5.2578125,1.4892578125h-7.3857421875c-.2021484375,0-.3037109375-.1015625-.3037109375-.3037109375v-20.05859375ZM72.9628067017,44.4319725037c.9111328125,0,1.6298828125-.248046875,2.1572265625-.7451171875.52734375-.49609375.7900390625-1.1494140625.7900390625-1.9599609375,0-.830078125-.2626953125-1.494140625-.7900390625-1.990234375-.52734375-.4970703125-1.24609375-.7451171875-2.1572265625-.7451171875h-4.1337890625c-.12109375,0-.1826171875.060546875-.1826171875.1826171875v5.0751953125c0,.1220703125.0615234375.1826171875.1826171875.1826171875h4.1337890625ZM68.6464004517,53.1546287537c0,.12109375.0615234375.181640625.1826171875.181640625h4.3154296875c1.013671875,0,1.7880859375-.2626953125,2.3251953125-.7900390625.537109375-.5263671875.8056640625-1.2255859375.8056640625-2.0966796875,0-.8515625-.2685546875-1.5400390625-.8056640625-2.06640625-.537109375-.52734375-1.3115234375-.791015625-2.3251953125-.791015625h-4.3154296875c-.12109375,0-.1826171875.0615234375-.1826171875.1826171875v5.3798828125Z"/>
        <path class="cls-2" d="M83.7508926392,39.0833396912c-.203125,0-.3037109375-.1015625-.3037109375-.3046875v-2.6435546875c0-.2021484375.1005859375-.3037109375.3037109375-.3037109375h2.7958984375c.2021484375,0,.3037109375.1015625.3037109375.3037109375v2.6435546875c0,.203125-.1015625.3046875-.3037109375.3046875h-2.7958984375ZM83.7508926392,56.4974021912c-.203125,0-.3037109375-.1015625-.3037109375-.3037109375v-14.041015625c0-.2021484375.1005859375-.3037109375.3037109375-.3037109375h2.7958984375c.2021484375,0,.3037109375.1015625.3037109375.3037109375v14.041015625c0,.2021484375-.1015625.3037109375-.3037109375.3037109375h-2.7958984375Z"/>
        <path class="cls-2" d="M100.5575332642,56.4974021912c-.203125,0-.3037109375-.1015625-.3037109375-.3037109375v-8.44921875c0-.9521484375-.2333984375-1.7216796875-.69921875-2.3095703125-.466796875-.587890625-1.1552734375-.8818359375-2.06640625-.8818359375-.892578125,0-1.5810546875.2939453125-2.0673828125.8818359375s-.7294921875,1.357421875-.7294921875,2.3095703125v8.44921875c0,.2021484375-.1015625.3037109375-.3037109375.3037109375h-2.7958984375c-.203125,0-.3037109375-.1015625-.3037109375-.3037109375v-14.041015625c0-.2021484375.1005859375-.3037109375.3037109375-.3037109375h2.7958984375c.2021484375,0,.3037109375.1015625.3037109375.3037109375v1.0634765625h.03125c.3232421875-.4658203125.8046875-.8662109375,1.443359375-1.2001953125.6376953125-.3349609375,1.443359375-.501953125,2.416015625-.501953125.7900390625,0,1.494140625.13671875,2.1123046875.41015625s1.1494140625.6533203125,1.595703125,1.1396484375c.4453125.486328125.78515625,1.0595703125,1.017578125,1.7177734375.2333984375.658203125.349609375,1.3828125.349609375,2.1728515625v9.2392578125c0,.2021484375-.1015625.3037109375-.3037109375.3037109375h-2.7958984375Z"/>
        <path class="cls-2" d="M115.1766738892,36.1350975037c0-.2021484375.1015625-.3037109375.3037109375-.3037109375h2.978515625c.2021484375,0,.3037109375.1005859375.3037109375.302734375v8.1162109375c0,.12109375.0615234375.181640625.1826171875.181640625h7.8720703125c.12109375,0,.181640625-.060546875.181640625-.181640625v-8.1162109375c0-.2021484375.1015625-.302734375.3037109375-.302734375h2.978515625c.203125,0,.3046875.1015625.3046875.3037109375v20.05859375c0,.2021484375-.1015625.3037109375-.3046875.3037109375h-2.978515625c-.2021484375,0-.3037109375-.1015625-.3037109375-.3037109375v-8.3271484375c0-.1220703125-.060546875-.1826171875-.181640625-.1826171875h-7.8720703125c-.12109375,0-.1826171875.060546875-.1826171875.1826171875v8.3271484375c0,.2021484375-.1015625.3037109375-.3037109375.3037109375h-2.978515625c-.2021484375,0-.3037109375-.1015625-.3037109375-.3037109375v-20.05859375Z"/>
        <path class="cls-2" d="M143.8055801392,56.4974021912c-.203125,0-.3046875-.1015625-.3046875-.3037109375v-1.0634765625h-.0302734375c-.3447265625.505859375-.861328125.9169921875-1.5498046875,1.23046875s-1.5498046875.470703125-2.5830078125.470703125c-.6689453125,0-1.302734375-.0908203125-1.8994140625-.2724609375-.59765625-.181640625-1.1201171875-.4541015625-1.5654296875-.8173828125-.4462890625-.36328125-.80078125-.822265625-1.0634765625-1.3779296875-.263671875-.5556640625-.3955078125-1.2177734375-.3955078125-1.984375,0-1.595703125.521484375-2.7666015625,1.5654296875-3.513671875,1.04296875-.7470703125,2.4765625-1.12109375,4.30078125-1.12109375h2.9775390625c.1220703125,0,.1826171875-.0615234375.1826171875-.1845703125v-.705078125c0-.8583984375-.2333984375-1.482421875-.69921875-1.87109375-.4658203125-.3876953125-1.31640625-.58203125-2.552734375-.58203125-.8310546875,0-1.509765625.095703125-2.0361328125.2880859375-.52734375.193359375-.962890625.4306640625-1.306640625.71484375-.1826171875.1416015625-.32421875.12109375-.42578125-.0615234375l-1.1240234375-2.005859375c-.1015625-.1611328125-.0810546875-.29296875.060546875-.39453125.5869140625-.42578125,1.2958984375-.76953125,2.126953125-1.033203125s1.8544921875-.3955078125,3.0703125-.3955078125c2.228515625,0,3.8037109375.4052734375,4.7255859375,1.2158203125s1.3828125,2.107421875,1.3828125,3.890625v9.5732421875c0,.2021484375-.1015625.3037109375-.3037109375.3037109375h-2.552734375ZM140.1883926392,54.0657615662c1.0537109375,0,1.8583984375-.2021484375,2.416015625-.607421875s.8359375-1.033203125.8359375-1.884765625v-1.1240234375c0-.1220703125-.060546875-.1826171875-.1826171875-.1826171875h-2.4306640625c-1.0947265625,0-1.89453125.1572265625-2.4013671875.4716796875-.5068359375.3134765625-.759765625.8154296875-.759765625,1.50390625,0,1.2158203125.8408203125,1.8232421875,2.5224609375,1.8232421875Z"/>
        <path class="cls-2" d="M151.2821426392,39.0833396912c-.203125,0-.3037109375-.1015625-.3037109375-.3046875v-2.6435546875c0-.2021484375.1005859375-.3037109375.3037109375-.3037109375h2.7958984375c.2021484375,0,.3037109375.1015625.3037109375.3037109375v2.6435546875c0,.203125-.1015625.3046875-.3037109375.3046875h-2.7958984375ZM151.2821426392,56.4974021912c-.203125,0-.3037109375-.1015625-.3037109375-.3037109375v-14.041015625c0-.2021484375.1005859375-.3037109375.3037109375-.3037109375h2.7958984375c.2021484375,0,.3037109375.1015625.3037109375.3037109375v14.041015625c0,.2021484375-.1015625.3037109375-.3037109375.3037109375h-2.7958984375Z"/>
        <path class="cls-2" d="M167.8456192017,56.4974021912c-.203125,0-.3037109375-.1015625-.3037109375-.3037109375v-1.0947265625h-.0302734375c-.3447265625.5068359375-.8310546875.9228515625-1.458984375,1.24609375-.62890625.32421875-1.439453125.486328125-2.431640625.486328125-1.2568359375,0-2.3203125-.2939453125-3.19140625-.880859375-.87109375-.587890625-1.4990234375-1.46875-1.8837890625-2.64453125-.1826171875-.56640625-.314453125-1.1494140625-.3955078125-1.7470703125s-.12109375-1.392578125-.12109375-2.3857421875.0400390625-1.7880859375.12109375-2.3857421875.212890625-1.1806640625.3955078125-1.748046875c.384765625-1.1748046875,1.0126953125-2.0556640625,1.8837890625-2.6435546875s1.9345703125-.8818359375,3.19140625-.8818359375c.9921875,0,1.802734375.1630859375,2.431640625.486328125.6279296875.32421875,1.1142578125.740234375,1.458984375,1.24609375h.0302734375v-7.111328125c0-.2021484375.1005859375-.3037109375.3037109375-.3037109375h2.7958984375c.2021484375,0,.3037109375.1015625.3037109375.3037109375v20.05859375c0,.2021484375-.1015625.3037109375-.3037109375.3037109375h-2.7958984375ZM164.5028457642,53.7923240662c1.41796875,0,2.3291015625-.6279296875,2.734375-1.8837890625.1015625-.3447265625.177734375-.7197265625.228515625-1.125.0498046875-.4052734375.076171875-.9423828125.076171875-1.6103515625,0-.6689453125-.0263671875-1.205078125-.076171875-1.611328125-.05078125-.404296875-.126953125-.779296875-.228515625-1.1240234375-.4052734375-1.255859375-1.31640625-1.884765625-2.734375-1.884765625-1.3984375,0-2.2998046875.62890625-2.705078125,1.884765625-.1015625.3447265625-.177734375.7197265625-.228515625,1.1240234375-.05078125.40625-.0751953125.9423828125-.0751953125,1.611328125,0,.66796875.0244140625,1.205078125.0751953125,1.6103515625s.126953125.7802734375.228515625,1.125c.4052734375,1.255859375,1.306640625,1.8837890625,2.705078125,1.8837890625Z"/>
        <path class="cls-2" d="M181.1874160767,56.8313865662c-1.560546875,0-2.8642578125-.359375-3.91015625-1.078125-1.046875-.7197265625-1.771484375-1.7177734375-2.1728515625-2.994140625-.16015625-.4658203125-.2861328125-.9873046875-.376953125-1.5654296875-.08984375-.5771484375-.134765625-1.25-.134765625-2.0205078125,0-.76953125.0400390625-1.4482421875.1201171875-2.0361328125s.2001953125-1.1142578125.361328125-1.5810546875c.40234375-1.2763671875,1.130859375-2.2685546875,2.1884765625-2.978515625,1.0556640625-.708984375,2.314453125-1.0634765625,3.7724609375-1.0634765625,1.51953125,0,2.80078125.3603515625,3.8447265625,1.0791015625,1.0439453125.7197265625,1.767578125,1.70703125,2.1728515625,2.962890625.0810546875.263671875.15234375.52734375.212890625.7900390625.0615234375.263671875.111328125.568359375.15234375.912109375.0400390625.3447265625.0703125.734375.0908203125,1.169921875.0205078125.4365234375.0302734375.947265625.0302734375,1.53515625,0,.203125-.111328125.3037109375-.333984375.3037109375h-9.0263671875c-.12109375,0-.1826171875.060546875-.1826171875.1826171875,0,.22265625.0205078125.42578125.0615234375.607421875.0400390625.1826171875.0908203125.35546875.1513671875.5166015625.505859375,1.4794921875,1.6005859375,2.21875,3.2822265625,2.21875.8310546875,0,1.51953125-.130859375,2.06640625-.39453125.5478515625-.263671875,1.0029296875-.59765625,1.3681640625-1.0029296875.162109375-.162109375.3134765625-.1826171875.4560546875-.0615234375l1.79296875,1.5810546875c.1416015625.12109375.15234375.263671875.0302734375.4248046875-.6279296875.7294921875-1.44921875,1.328125-2.4619140625,1.7939453125s-2.1982421875.6982421875-3.5556640625.6982421875ZM184.1053848267,47.5599021912c0-.4697265625-.0615234375-.888671875-.1826171875-1.2568359375-.203125-.5927734375-.5576171875-1.05859375-1.0634765625-1.3955078125-.5068359375-.3369140625-1.1044921875-.505859375-1.79296875-.505859375-.7099609375,0-1.3173828125.1689453125-1.82421875.505859375s-.861328125.802734375-1.0634765625,1.3955078125c-.12109375.3681640625-.1826171875.787109375-.1826171875,1.2568359375,0,.123046875.0615234375.1845703125.1826171875.1845703125h5.744140625c.12109375,0,.1826171875-.0615234375.1826171875-.1845703125Z"/>
        <path class="cls-2" d="M191.5204238892,56.4974021912c-.203125,0-.3037109375-.1015625-.3037109375-.3037109375v-14.041015625c0-.2021484375.1005859375-.3037109375.3037109375-.3037109375h2.7958984375c.2021484375,0,.3037109375.1015625.3037109375.3037109375v1.24609375h.03125c.34375-.5673828125.830078125-1.0234375,1.4580078125-1.3681640625.6279296875-.34375,1.408203125-.5166015625,2.3408203125-.5166015625.5869140625,0,1.1494140625.1064453125,1.6865234375.3193359375.5361328125.212890625.998046875.51171875,1.3828125.896484375.1416015625.1416015625.162109375.2841796875.060546875.42578125l-1.6103515625,2.0361328125c-.1220703125.162109375-.263671875.1826171875-.42578125.060546875-.3447265625-.22265625-.6884765625-.39453125-1.033203125-.5166015625-.3447265625-.12109375-.7197265625-.1826171875-1.125-.1826171875-.9716796875,0-1.6767578125.32421875-2.111328125.97265625-.4365234375.6484375-.654296875,1.560546875-.654296875,2.7353515625v7.9326171875c0,.2021484375-.1015625.3037109375-.3037109375.3037109375h-2.7958984375Z"/>
        <path class="cls-2" d="M211.3055801392,36.1048240662c0-.203125.1015625-.3046875.3046875-.3046875h7.400390625c3.61328125,0,5.91796875,1.5322265625,6.912109375,4.5966796875.0810546875.263671875.15234375.5419921875.212890625.8369140625.0615234375.2939453125.1171875.654296875.16796875,1.080078125.05078125.4267578125.0859375.94921875.1064453125,1.5673828125.0205078125.619140625.0302734375,1.375.0302734375,2.267578125s-.009765625,1.6494140625-.0302734375,2.267578125c-.0205078125.619140625-.0556640625,1.1416015625-.1064453125,1.5673828125-.05078125.4267578125-.1064453125.787109375-.16796875,1.0810546875-.060546875.294921875-.1318359375.5732421875-.212890625.8369140625-.994140625,3.0634765625-3.298828125,4.595703125-6.912109375,4.595703125h-7.400390625c-.203125,0-.3046875-.1015625-.3046875-.3046875v-20.087890625ZM214.8915176392,53.0638084412c0,.12109375.0615234375.181640625.1826171875.181640625h3.0693359375c1.1552734375,0,2.08203125-.2021484375,2.78125-.6064453125s1.2001953125-1.0712890625,1.50390625-2.001953125c.0615234375-.140625.111328125-.3173828125.15234375-.5302734375.0400390625-.2119140625.076171875-.4853515625.1064453125-.8193359375.0302734375-.3330078125.0556640625-.7529296875.076171875-1.2578125.01953125-.505859375.0302734375-1.1318359375.0302734375-1.880859375,0-.748046875-.0107421875-1.375-.0302734375-1.8798828125-.0205078125-.5048828125-.0458984375-.9296875-.076171875-1.2734375s-.06640625-.6171875-.1064453125-.8193359375c-.041015625-.2021484375-.0908203125-.3740234375-.15234375-.515625-.3037109375-.9296875-.8046875-1.5966796875-1.50390625-2.0009765625s-1.6259765625-.607421875-2.78125-.607421875h-3.0693359375c-.12109375,0-.1826171875.0615234375-.1826171875.1826171875v13.8291015625Z"/>
        <path class="cls-2" d="M238.9628067017,56.4974021912c-.203125,0-.3046875-.1015625-.3046875-.3037109375v-1.0634765625h-.0302734375c-.3447265625.505859375-.861328125.9169921875-1.5498046875,1.23046875s-1.5498046875.470703125-2.5830078125.470703125c-.6689453125,0-1.302734375-.0908203125-1.8994140625-.2724609375-.59765625-.181640625-1.1201171875-.4541015625-1.5654296875-.8173828125-.4462890625-.36328125-.80078125-.822265625-1.0634765625-1.3779296875-.263671875-.5556640625-.3955078125-1.2177734375-.3955078125-1.984375,0-1.595703125.521484375-2.7666015625,1.5654296875-3.513671875,1.04296875-.7470703125,2.4765625-1.12109375,4.30078125-1.12109375h2.9775390625c.1220703125,0,.1826171875-.0615234375.1826171875-.1845703125v-.705078125c0-.8583984375-.2333984375-1.482421875-.69921875-1.87109375-.4658203125-.3876953125-1.31640625-.58203125-2.552734375-.58203125-.8310546875,0-1.509765625.095703125-2.0361328125.2880859375-.52734375.193359375-.962890625.4306640625-1.306640625.71484375-.1826171875.1416015625-.32421875.12109375-.42578125-.0615234375l-1.1240234375-2.005859375c-.1015625-.1611328125-.0810546875-.29296875.060546875-.39453125.5869140625-.42578125,1.2958984375-.76953125,2.126953125-1.033203125s1.8544921875-.3955078125,3.0703125-.3955078125c2.228515625,0,3.8037109375.4052734375,4.7255859375,1.2158203125s1.3828125,2.107421875,1.3828125,3.890625v9.5732421875c0,.2021484375-.1015625.3037109375-.3037109375.3037109375h-2.552734375ZM235.3456192017,54.0657615662c1.0537109375,0,1.8583984375-.2021484375,2.416015625-.607421875s.8359375-1.033203125.8359375-1.884765625v-1.1240234375c0-.1220703125-.060546875-.1826171875-.1826171875-.1826171875h-2.4306640625c-1.0947265625,0-1.89453125.1572265625-2.4013671875.4716796875-.5068359375.3134765625-.759765625.8154296875-.759765625,1.50390625,0,1.2158203125.8408203125,1.8232421875,2.5224609375,1.8232421875Z"/>
        <path class="cls-2" d="M246.4383926392,56.4974021912c-.203125,0-.3037109375-.1015625-.3037109375-.3037109375v-14.041015625c0-.2021484375.1005859375-.3037109375.3037109375-.3037109375h2.7958984375c.2021484375,0,.3037109375.1015625.3037109375.3037109375v1.24609375h.03125c.34375-.5673828125.830078125-1.0234375,1.4580078125-1.3681640625.6279296875-.34375,1.408203125-.5166015625,2.3408203125-.5166015625.5869140625,0,1.1494140625.1064453125,1.6865234375.3193359375.5361328125.212890625.998046875.51171875,1.3828125.896484375.1416015625.1416015625.162109375.2841796875.060546875.42578125l-1.6103515625,2.0361328125c-.1220703125.162109375-.263671875.1826171875-.42578125.060546875-.3447265625-.22265625-.6884765625-.39453125-1.033203125-.5166015625-.3447265625-.12109375-.7197265625-.1826171875-1.125-.1826171875-.9716796875,0-1.6767578125.32421875-2.111328125.97265625-.4365234375.6484375-.654296875,1.560546875-.654296875,2.7353515625v7.9326171875c0,.2021484375-.1015625.3037109375-.3037109375.3037109375h-2.7958984375Z"/>
        <path class="cls-2" d="M271.4520645142,56.4974021912c-.1826171875,0-.3046875-.1015625-.365234375-.3037109375l-2.826171875-9.361328125h-.060546875l-2.857421875,9.361328125c-.060546875.2021484375-.1826171875.3037109375-.3642578125.3037109375h-2.4921875c-.1826171875,0-.3037109375-.1015625-.365234375-.3037109375l-4.619140625-14.041015625c-.060546875-.2021484375.009765625-.3037109375.212890625-.3037109375h2.9169921875c.203125,0,.3349609375.1015625.3955078125.3037109375l2.826171875,9.6640625h.060546875l2.796875-9.6640625c.060546875-.2021484375.1923828125-.3037109375.39453125-.3037109375h2.1884765625c.2021484375,0,.333984375.1015625.3955078125.3037109375l2.9775390625,9.6640625h.0615234375l2.673828125-9.6640625c.0615234375-.2021484375.1923828125-.3037109375.3955078125-.3037109375h2.91796875c.2021484375,0,.2734375.1015625.2119140625.3037109375l-4.619140625,14.041015625c-.060546875.2021484375-.1826171875.3037109375-.3642578125.3037109375h-2.4921875Z"/>
        <path class="cls-2" d="M282.1796035767,39.0833396912c-.203125,0-.3037109375-.1015625-.3037109375-.3046875v-2.6435546875c0-.2021484375.1005859375-.3037109375.3037109375-.3037109375h2.7958984375c.2021484375,0,.3037109375.1015625.3037109375.3037109375v2.6435546875c0,.203125-.1015625.3046875-.3037109375.3046875h-2.7958984375ZM282.1796035767,56.4974021912c-.203125,0-.3037109375-.1015625-.3037109375-.3037109375v-14.041015625c0-.2021484375.1005859375-.3037109375.3037109375-.3037109375h2.7958984375c.2021484375,0,.3037109375.1015625.3037109375.3037109375v14.041015625c0,.2021484375-.1015625.3037109375-.3037109375.3037109375h-2.7958984375Z"/>
        <path class="cls-2" d="M295.1258926392,56.8313865662c-1.4990234375,0-2.7705078125-.2431640625-3.8134765625-.7294921875-1.0439453125-.486328125-1.869140625-1.0126953125-2.4775390625-1.580078125-.1416015625-.1416015625-.1416015625-.283203125,0-.42578125l1.732421875-1.8232421875c.1416015625-.1416015625.2841796875-.1416015625.42578125,0,.5263671875.486328125,1.1796875.88671875,1.9599609375,1.2001953125.7802734375.314453125,1.5546875.4716796875,2.3251953125.4716796875.912109375,0,1.5908203125-.162109375,2.0361328125-.486328125s.6689453125-.7392578125.6689453125-1.24609375c0-.4453125-.1669921875-.7998046875-.501953125-1.0634765625-.333984375-.263671875-.9775390625-.4453125-1.9296875-.5478515625l-1.580078125-.1513671875c-1.5-.162109375-2.6240234375-.6083984375-3.3740234375-1.3369140625-.7490234375-.7294921875-1.1240234375-1.72265625-1.1240234375-2.978515625,0-1.41796875.486328125-2.54296875,1.458984375-3.3740234375.97265625-.830078125,2.3798828125-1.24609375,4.224609375-1.24609375,1.154296875,0,2.1982421875.1669921875,3.1298828125.501953125.931640625.333984375,1.7216796875.7646484375,2.37109375,1.291015625.1611328125.1220703125.181640625.263671875.060546875.42578125l-1.4892578125,1.79296875c-.1220703125.142578125-.263671875.1630859375-.42578125.060546875-.4658203125-.3232421875-1.0380859375-.607421875-1.716796875-.8505859375-.6796875-.2431640625-1.3828125-.3642578125-2.1123046875-.3642578125s-1.2822265625.1416015625-1.65625.4248046875c-.375.2841796875-.5625.6494140625-.5625,1.0947265625,0,.4248046875.162109375.7646484375.486328125,1.017578125.32421875.25390625.9619140625.4306640625,1.9150390625.5322265625l1.580078125.1513671875c1.5390625.1630859375,2.6787109375.61328125,3.4189453125,1.3525390625.7392578125.740234375,1.109375,1.7177734375,1.109375,2.93359375,0,1.4580078125-.5166015625,2.6484375-1.5498046875,3.5703125-1.033203125.9228515625-2.5634765625,1.3828125-4.58984375,1.3828125Z"/>
        <path class="cls-2" d="M314.1219863892,56.4974021912c-.203125,0-.3037109375-.1015625-.3037109375-.3037109375v-8.44921875c0-.9521484375-.2333984375-1.7216796875-.69921875-2.3095703125-.466796875-.587890625-1.1552734375-.8818359375-2.06640625-.8818359375-.892578125,0-1.5810546875.2939453125-2.0673828125.8818359375s-.7294921875,1.357421875-.7294921875,2.3095703125v8.44921875c0,.2021484375-.1015625.3037109375-.3037109375.3037109375h-2.7958984375c-.203125,0-.3037109375-.1015625-.3037109375-.3037109375v-20.05859375c0-.2021484375.1005859375-.3037109375.3037109375-.3037109375h2.7958984375c.2021484375,0,.3037109375.1015625.3037109375.3037109375v7.0810546875h.03125c.3232421875-.4658203125.8046875-.8662109375,1.443359375-1.2001953125.6376953125-.3349609375,1.443359375-.501953125,2.416015625-.501953125.7900390625,0,1.494140625.13671875,2.1123046875.41015625s1.1494140625.6533203125,1.595703125,1.1396484375c.4453125.486328125.78515625,1.0595703125,1.017578125,1.7177734375.2333984375.658203125.349609375,1.3828125.349609375,2.1728515625v9.2392578125c0,.2021484375-.1015625.3037109375-.3037109375.3037109375h-2.7958984375Z"/>
      </g>
      <g>
        <path class="cls-1" d="M63.9657363892,22.8938865662c0-1.09375.171875-2.1875.5166015625-3.2822265625.34375-1.09375.76953125-2.0361328125,1.2763671875-2.826171875.1005859375-.1826171875.2529296875-.2021484375.4560546875-.060546875l2.4619140625.97265625c.1005859375.0400390625.15625.095703125.1669921875.1669921875.009765625.0712890625-.005859375.1474609375-.0458984375.2275390625-.32421875.5673828125-.6337890625,1.2314453125-.9267578125,1.9912109375-.2939453125.759765625-.4404296875,1.5947265625-.4404296875,2.5068359375,0,.7900390625.1259765625,1.4541015625.3798828125,1.9912109375.2529296875.5361328125.5771484375.966796875.9716796875,1.291015625.3955078125.32421875.8359375.5517578125,1.322265625.68359375s.9619140625.1982421875,1.4287109375.1982421875c1.1748046875,0,2.1171875-.310546875,2.826171875-.931640625s1.0634765625-1.6240234375,1.0634765625-3.0078125v-9.1904296875c0-.2021484375.1005859375-.3037109375.3017578125-.3037109375h2.8017578125c.2001953125,0,.30078125.1015625.30078125.3037109375v4.9541015625c0,.7900390625.2197265625,1.3125.658203125,1.5654296875.4384765625.25390625.9541015625.3798828125,1.5458984375.3798828125.46875,0,.8408203125-.0458984375,1.1171875-.13671875.275390625-.091796875.484375-.232421875.626953125-.42578125.142578125-.1923828125.2353515625-.4404296875.275390625-.744140625.041015625-.3046875.0615234375-.6787109375.0615234375-1.125v-4.4677734375c0-.2021484375.1005859375-.3037109375.30078125-.3037109375h2.8017578125c.201171875,0,.3017578125.1015625.3017578125.3037109375v5.044921875c0,.3857421875.0654296875.69921875.1982421875.9423828125s.306640625.4306640625.5205078125.5625c.21484375.1318359375.4541015625.2236328125.7197265625.2734375.2646484375.05078125.5400390625.076171875.826171875.076171875.490234375,0,.8671875-.0654296875,1.1328125-.1962890625.2646484375-.1318359375.4638671875-.3232421875.5966796875-.576171875.1328125-.251953125.208984375-.5751953125.2294921875-.9697265625.0205078125-.3935546875.03125-.86328125.03125-1.4091796875v-6.119140625c0-.2021484375.099609375-.302734375.30078125-.302734375h2.8017578125c.2001953125,0,.30078125.1005859375.30078125.302734375v7.392578125c0,.60546875.228515625,1.0703125.6845703125,1.392578125.455078125.32421875,1.068359375.4853515625,1.837890625.4853515625h.486328125c.4052734375,0,.708984375.1123046875.912109375.337890625.2021484375.224609375.3037109375.603515625.3037109375,1.1357421875,0,.59375-.0966796875,1.0029296875-.2890625,1.2275390625-.1923828125.2255859375-.5009765625.337890625-.9267578125.337890625-.76953125,0-1.443359375-.0966796875-2.0205078125-.2919921875-.578125-.193359375-1.0380859375-.6181640625-1.3798828125-1.2734375-.2841796875.5732421875-.6884765625.9775390625-1.2158203125,1.212890625s-1.24609375.3525390625-2.1572265625.3525390625h-.791015625c-.87109375,0-1.5908203125-.1123046875-2.1572265625-.337890625-.5673828125-.224609375-1.013671875-.64453125-1.3369140625-1.2587890625-.5078125,1.064453125-1.5615234375,1.5966796875-3.1630859375,1.5966796875h-1.5810546875c-1.134765625,0-1.986328125-.34765625-2.5537109375-1.0439453125v.3955078125c0,1.15625-.1767578125,2.1708984375-.53125,3.0439453125-.353515625.8720703125-.8583984375,1.59765625-1.515625,2.17578125s-1.44140625,1.009765625-2.3505859375,1.2939453125c-.91015625.283203125-1.9208984375.42578125-3.033203125.42578125-1.072265625,0-2.0576171875-.1416015625-2.95703125-.42578125-.900390625-.283203125-1.68359375-.7138671875-2.3505859375-1.291015625-.66796875-.578125-1.1884765625-1.302734375-1.5625-2.1728515625-.3740234375-.8720703125-.560546875-1.8955078125-.560546875-3.0703125ZM81.5926895142,7.9114646912c-.203125,0-.3037109375-.1025390625-.3037109375-.3076171875v-2.6376953125c0-.2041015625.1005859375-.306640625.3037109375-.306640625h2.552734375c.2021484375,0,.3037109375.1025390625.3037109375.306640625v2.6376953125c0,.205078125-.1015625.3076171875-.3037109375.3076171875h-2.552734375ZM83.5380020142,3.9905662537c-.203125,0-.3037109375-.1025390625-.3037109375-.306640625V1.0452537537c0-.2041015625.1005859375-.306640625.3037109375-.306640625h2.552734375c.2021484375,0,.3037109375.1025390625.3037109375.306640625v2.638671875c0,.2041015625-.1015625.306640625-.3037109375.306640625h-2.552734375ZM85.5438613892,7.9114646912c-.203125,0-.3037109375-.1025390625-.3037109375-.3076171875v-2.6376953125c0-.2041015625.1005859375-.306640625.3037109375-.306640625h2.552734375c.2021484375,0,.3037109375.1025390625.3037109375.306640625v2.6376953125c0,.205078125-.1015625.3076171875-.3037109375.3076171875h-2.552734375Z"/>
        <path class="cls-1" d="M97.2440567017,23.5628318787c-.4052734375,0-.68359375-.1025390625-.8359375-.306640625-.1513671875-.205078125-.2275390625-.5830078125-.2275390625-1.1357421875,0-.6142578125.0712890625-1.0341796875.212890625-1.2587890625.1416015625-.2255859375.4248046875-.337890625.8505859375-.337890625h3.6474609375c.404296875,0,.708984375.1123046875.9111328125.337890625.2021484375.224609375.3037109375.61328125.3037109375,1.166015625,0,.634765625-.095703125,1.0498046875-.2880859375,1.2431640625-.193359375.1953125-.501953125.2919921875-.9267578125.2919921875h-3.6474609375Z"/>
        <path class="cls-1" d="M100.8915176392,23.5628318787c-.4052734375,0-.68359375-.1025390625-.8359375-.306640625-.1513671875-.205078125-.2275390625-.5830078125-.2275390625-1.1357421875,0-.6142578125.0712890625-1.0341796875.212890625-1.2587890625.1416015625-.2255859375.4248046875-.337890625.8505859375-.337890625h3.6474609375c.404296875,0,.708984375.1123046875.9111328125.337890625.2021484375.224609375.3037109375.61328125.3037109375,1.166015625,0,.634765625-.095703125,1.0498046875-.2880859375,1.2431640625-.193359375.1953125-.501953125.2919921875-.9267578125.2919921875h-3.6474609375Z"/>
        <path class="cls-1" d="M104.5380020142,23.5628318787c-.4052734375,0-.68359375-.1025390625-.8359375-.306640625-.1513671875-.205078125-.2275390625-.5830078125-.2275390625-1.1357421875,0-.6142578125.0712890625-1.0341796875.212890625-1.2587890625.1416015625-.2255859375.4248046875-.337890625.8505859375-.337890625h3.6474609375c.404296875,0,.708984375.1123046875.9111328125.337890625.2021484375.224609375.3037109375.61328125.3037109375,1.166015625,0,.634765625-.095703125,1.0498046875-.2880859375,1.2431640625-.193359375.1953125-.501953125.2919921875-.9267578125.2919921875h-3.6474609375Z"/>
        <path class="cls-1" d="M108.1854629517,23.5628318787c-.4052734375,0-.68359375-.1025390625-.8359375-.306640625-.1513671875-.205078125-.2275390625-.5830078125-.2275390625-1.1357421875,0-.6142578125.0712890625-1.0341796875.212890625-1.2587890625.1416015625-.2255859375.4248046875-.337890625.8505859375-.337890625h3.6474609375c.404296875,0,.708984375.1123046875.9111328125.337890625.2021484375.224609375.3037109375.61328125.3037109375,1.166015625,0,.634765625-.095703125,1.0498046875-.2880859375,1.2431640625-.193359375.1953125-.501953125.2919921875-.9267578125.2919921875h-3.6474609375Z"/>
        <path class="cls-1" d="M111.8319473267,23.5628318787c-.4052734375,0-.68359375-.1025390625-.8359375-.306640625-.1513671875-.205078125-.2275390625-.5830078125-.2275390625-1.1357421875,0-.6142578125.0712890625-1.0341796875.212890625-1.2587890625.1416015625-.2255859375.4248046875-.337890625.8505859375-.337890625h3.6474609375c.404296875,0,.708984375.1123046875.9111328125.337890625.2021484375.224609375.3037109375.61328125.3037109375,1.166015625,0,.634765625-.095703125,1.0498046875-.2880859375,1.2431640625-.193359375.1953125-.501953125.2919921875-.9267578125.2919921875h-3.6474609375Z"/>
        <path class="cls-1" d="M115.4794082642,23.5628318787c-.4052734375,0-.68359375-.1025390625-.8359375-.306640625-.1513671875-.205078125-.2275390625-.5830078125-.2275390625-1.1357421875,0-.6142578125.0712890625-1.0341796875.212890625-1.2587890625.1416015625-.2255859375.4248046875-.337890625.8505859375-.337890625h3.6474609375c.404296875,0,.708984375.1123046875.9111328125.337890625.2021484375.224609375.3037109375.61328125.3037109375,1.166015625,0,.634765625-.095703125,1.0498046875-.2880859375,1.2431640625-.193359375.1953125-.501953125.2919921875-.9267578125.2919921875h-3.6474609375Z"/>
        <path class="cls-1" d="M119.1258926392,23.5628318787c-.4052734375,0-.68359375-.1025390625-.8359375-.306640625-.1513671875-.205078125-.2275390625-.5830078125-.2275390625-1.1357421875,0-.6142578125.0712890625-1.0341796875.212890625-1.2587890625.1416015625-.2255859375.4248046875-.337890625.8505859375-.337890625h3.6474609375c.404296875,0,.708984375.1123046875.9111328125.337890625.2021484375.224609375.3037109375.61328125.3037109375,1.166015625,0,.634765625-.095703125,1.0498046875-.2880859375,1.2431640625-.193359375.1953125-.501953125.2919921875-.9267578125.2919921875h-3.6474609375Z"/>
        <path class="cls-1" d="M122.7733535767,23.5628318787c-.4052734375,0-.708984375-.0966796875-.912109375-.2919921875-.2021484375-.193359375-.3037109375-.5673828125-.3037109375-1.1201171875,0-.59375.0966796875-1.0126953125.2890625-1.2587890625.1923828125-.2451171875.5009765625-.3681640625.9267578125-.3681640625h1.9755859375c.505859375,0,.8759765625-.1162109375,1.109375-.3486328125.232421875-.2314453125.349609375-.6513671875.349609375-1.2568359375v-7.6650390625c0-.2021484375.099609375-.302734375.30078125-.302734375h2.8017578125c.2001953125,0,.30078125.1015625.30078125.3037109375v8.4794921875c0,1.3173828125-.2705078125,2.2841796875-.8134765625,2.90234375-.5419921875.6181640625-1.4453125.9267578125-2.7119140625.9267578125h-3.3125ZM123.9286270142,29.3977928162c-.203125,0-.3046875-.1025390625-.3046875-.306640625v-2.638671875c0-.2041015625.1015625-.306640625.3046875-.306640625h2.552734375c.2021484375,0,.3037109375.1025390625.3037109375.306640625v2.638671875c0,.2041015625-.1015625.306640625-.3037109375.306640625h-2.552734375ZM127.8788223267,29.3977928162c-.2021484375,0-.3037109375-.1025390625-.3037109375-.306640625v-2.638671875c0-.2041015625.1015625-.306640625.3037109375-.306640625h2.5537109375c.2021484375,0,.3037109375.1025390625.3037109375.306640625v2.638671875c0,.2041015625-.1015625.306640625-.3037109375.306640625h-2.5537109375Z"/>
        <path class="cls-1" d="M139.3065567017,23.5628318787c-.953125,0-1.798828125-.1064453125-2.5380859375-.3193359375s-1.3623046875-.56640625-1.869140625-1.0634765625c-.505859375-.49609375-.896484375-1.1396484375-1.169921875-1.9296875s-.41015625-1.7626953125-.41015625-2.91796875c0-1.2353515625.1669921875-2.294921875.5029296875-3.17578125.3349609375-.8818359375.7919921875-1.6005859375,1.3701171875-2.158203125.5791015625-.556640625,1.244140625-.9619140625,1.99609375-1.21484375.7509765625-.25390625,1.5439453125-.380859375,2.3759765625-.380859375.9140625,0,1.751953125.1220703125,2.513671875.365234375s1.4169921875.6279296875,1.96484375,1.1552734375c.548828125.5263671875.974609375,1.21484375,1.2802734375,2.06640625.3046875.8505859375.45703125,1.89453125.45703125,3.1298828125v7.1123046875c0,1.904296875-.48046875,3.2919921875-1.44140625,4.1630859375s-2.3544921875,1.306640625-4.181640625,1.306640625h-4.1025390625c-.203125,0-.3037109375-.1015625-.3037109375-.3037109375v-2.4306640625c0-.203125.1005859375-.3046875.3037109375-.3046875h3.5556640625c.4052734375,0,.7802734375-.03515625,1.125-.1064453125.34375-.0703125.6376953125-.2177734375.880859375-.4404296875s.4306640625-.537109375.5625-.9423828125.197265625-.94140625.197265625-1.6103515625h-3.0693359375ZM139.5799942017,13.4427146912c-.9326171875,0-1.6513671875.3427734375-2.158203125,1.0283203125-.505859375.6865234375-.759765625,1.603515625-.759765625,2.75390625,0,1.271484375.2587890625,2.138671875.775390625,2.6025390625.5166015625.46484375,1.26171875.6962890625,2.2333984375.6962890625h2.705078125v-3.4501953125c0-1.189453125-.22265625-2.0927734375-.66796875-2.7080078125-.4462890625-.615234375-1.1552734375-.9228515625-2.1279296875-.9228515625Z"/>
        <path class="cls-1" d="M147.9676895142,29.7015037537c-.2021484375,0-.3037109375-.1015625-.3037109375-.3037109375v-2.4306640625c0-.203125.1015625-.3046875.3037109375-.3046875h.6689453125c.8505859375,0,1.4638671875-.2119140625,1.8388671875-.6376953125s.5625-1.07421875.5625-1.9453125v-12.8251953125c0-.2021484375.099609375-.3037109375.30078125-.3037109375h2.8017578125c.2001953125,0,.30078125.1015625.30078125.3037109375v12.8857421875c0,3.7080078125-1.783203125,5.5615234375-5.3486328125,5.5615234375h-1.125Z"/>
        <path class="cls-1" d="M169.6678848267,18.3655662537c0,1.013671875-.0908203125,1.849609375-.2705078125,2.5078125-.181640625.658203125-.4521484375,1.1904296875-.8134765625,1.595703125s-.82421875.6884765625-1.3857421875.8505859375c-.5625.162109375-1.228515625.2431640625-1.998046875.2431640625h-7.05078125c-.2021484375,0-.3037109375-.1025390625-.3037109375-.306640625v-2.42578125c0-.2041015625.1015625-.306640625.3037109375-.306640625h5.6533203125c.546875,0,.982421875-.0400390625,1.306640625-.12109375s.572265625-.216796875.7451171875-.408203125c.171875-.1923828125.283203125-.439453125.333984375-.7412109375.0498046875-.302734375.076171875-.67578125.076171875-1.1201171875v-2.02734375c0-1.775390625-1.033203125-2.6630859375-3.1005859375-2.6630859375h-3.646484375c-.203125,0-.3037109375-.1015625-.3037109375-.3046875v-2.4306640625c0-.2021484375.1005859375-.3046875.3037109375-.3046875h4.8623046875c1.6171875,0,2.9033203125.44140625,3.857421875,1.322265625.9541015625.8818359375,1.4306640625,2.2548828125,1.4306640625,4.1181640625v2.5224609375Z"/>
        <path class="cls-1" d="M178.7850723267,29.7015037537c-.2021484375,0-.3037109375-.1015625-.3037109375-.3037109375v-2.4306640625c0-.203125.1015625-.3046875.3037109375-.3046875h.6689453125c.8505859375,0,1.4638671875-.2119140625,1.8388671875-.6376953125s.5625-1.07421875.5625-1.9453125v-12.8251953125c0-.2021484375.099609375-.3037109375.30078125-.3037109375h2.8017578125c.2001953125,0,.30078125.1015625.30078125.3037109375v12.8857421875c0,3.7080078125-1.783203125,5.5615234375-5.3486328125,5.5615234375h-1.125Z"/>
        <path class="cls-1" d="M190.3348770142,13.4427146912c-.203125,0-.3037109375-.1015625-.3037109375-.3046875v-2.4306640625c0-.2021484375.1005859375-.3046875.3037109375-.3046875h4.619140625c1.69921875,0,3.0458984375.4248046875,4.0400390625,1.2734375s1.4912109375,2.232421875,1.4912109375,4.1513671875v2.84765625c0,.5859375.22265625,1.041015625.6689453125,1.36328125.4453125.32421875,1.052734375.4853515625,1.8232421875.4853515625h.5166015625c.4052734375,0,.708984375.1123046875.912109375.337890625.2021484375.224609375.3037109375.603515625.3037109375,1.1357421875,0,.59375-.0966796875,1.0029296875-.2890625,1.2275390625-.1923828125.2255859375-.5009765625.337890625-.9267578125.337890625-.8505859375,0-1.5849609375-.1123046875-2.203125-.337890625-.6171875-.224609375-1.0966796875-.6953125-1.4375-1.412109375-.3818359375.6962890625-.8994140625,1.162109375-1.5517578125,1.3974609375-.6533203125.2353515625-1.4951171875.3525390625-2.52734375.3525390625h-6.8076171875c-.2021484375,0-.3037109375-.1025390625-.3037109375-.306640625v-2.42578125c0-.2041015625.1015625-.306640625.3037109375-.306640625h5.6533203125c.546875,0,.982421875-.0400390625,1.306640625-.12109375s.572265625-.216796875.7451171875-.408203125c.171875-.1923828125.283203125-.439453125.333984375-.7412109375.0498046875-.302734375.076171875-.67578125.076171875-1.1201171875v-2.02734375c0-.9287109375-.2587890625-1.6044921875-.775390625-2.02734375-.5166015625-.423828125-1.2919921875-.6357421875-2.3251953125-.6357421875h-3.646484375Z"/>
        <path class="cls-1" d="M203.5243301392,23.5628318787c-.4052734375,0-.68359375-.1025390625-.8359375-.306640625-.1513671875-.205078125-.2275390625-.5830078125-.2275390625-1.1357421875,0-.6142578125.0712890625-1.0341796875.212890625-1.2587890625.1416015625-.2255859375.4248046875-.337890625.8505859375-.337890625h3.6474609375c.404296875,0,.708984375.1123046875.9111328125.337890625.2021484375.224609375.3037109375.61328125.3037109375,1.166015625,0,.634765625-.095703125,1.0498046875-.2880859375,1.2431640625-.193359375.1953125-.501953125.2919921875-.9267578125.2919921875h-3.6474609375Z"/>
        <path class="cls-1" d="M207.1717910767,23.5628318787c-.4052734375,0-.68359375-.1025390625-.8359375-.306640625-.1513671875-.205078125-.2275390625-.5830078125-.2275390625-1.1357421875,0-.6142578125.0712890625-1.0341796875.212890625-1.2587890625.1416015625-.2255859375.4248046875-.337890625.8505859375-.337890625h3.6474609375c.404296875,0,.708984375.1123046875.9111328125.337890625.2021484375.224609375.3037109375.61328125.3037109375,1.166015625,0,.634765625-.095703125,1.0498046875-.2880859375,1.2431640625-.193359375.1953125-.501953125.2919921875-.9267578125.2919921875h-3.6474609375Z"/>
        <path class="cls-1" d="M210.8182754517,23.5628318787c-.4052734375,0-.68359375-.1025390625-.8359375-.306640625-.1513671875-.205078125-.2275390625-.5830078125-.2275390625-1.1357421875,0-.6142578125.0712890625-1.0341796875.212890625-1.2587890625.1416015625-.2255859375.4248046875-.337890625.8505859375-.337890625h3.6474609375c.404296875,0,.708984375.1123046875.9111328125.337890625.2021484375.224609375.3037109375.61328125.3037109375,1.166015625,0,.634765625-.095703125,1.0498046875-.2880859375,1.2431640625-.193359375.1953125-.501953125.2919921875-.9267578125.2919921875h-3.6474609375Z"/>
        <path class="cls-1" d="M214.4657363892,23.5628318787c-.4052734375,0-.68359375-.1025390625-.8359375-.306640625-.1513671875-.205078125-.2275390625-.5830078125-.2275390625-1.1357421875,0-.6142578125.0712890625-1.0341796875.212890625-1.2587890625.1416015625-.2255859375.4248046875-.337890625.8505859375-.337890625h3.6474609375c.404296875,0,.708984375.1123046875.9111328125.337890625.2021484375.224609375.3037109375.61328125.3037109375,1.166015625,0,.634765625-.095703125,1.0498046875-.2880859375,1.2431640625-.193359375.1953125-.501953125.2919921875-.9267578125.2919921875h-3.6474609375Z"/>
        <path class="cls-1" d="M218.1122207642,23.5628318787c-.4052734375,0-.68359375-.1025390625-.8359375-.306640625-.1513671875-.205078125-.2275390625-.5830078125-.2275390625-1.1357421875,0-.6142578125.0712890625-1.0341796875.212890625-1.2587890625.1416015625-.2255859375.4248046875-.337890625.8505859375-.337890625h3.6474609375c.404296875,0,.708984375.1123046875.9111328125.337890625.2021484375.224609375.3037109375.61328125.3037109375,1.166015625,0,.634765625-.095703125,1.0498046875-.2880859375,1.2431640625-.193359375.1953125-.501953125.2919921875-.9267578125.2919921875h-3.6474609375Z"/>
        <path class="cls-1" d="M221.7596817017,23.5628318787c-.4052734375,0-.68359375-.1025390625-.8359375-.306640625-.1513671875-.205078125-.2275390625-.5830078125-.2275390625-1.1357421875,0-.6142578125.0712890625-1.0341796875.212890625-1.2587890625.1416015625-.2255859375.4248046875-.337890625.8505859375-.337890625h3.6474609375c.404296875,0,.708984375.1123046875.9111328125.337890625.2021484375.224609375.3037109375.61328125.3037109375,1.166015625,0,.634765625-.095703125,1.0498046875-.2880859375,1.2431640625-.193359375.1953125-.501953125.2919921875-.9267578125.2919921875h-3.6474609375Z"/>
        <path class="cls-1" d="M225.4071426392,23.5628318787c-.4052734375,0-.68359375-.1025390625-.8359375-.306640625-.1513671875-.205078125-.2275390625-.5830078125-.2275390625-1.1357421875,0-.6142578125.0712890625-1.0341796875.212890625-1.2587890625.1416015625-.2255859375.4248046875-.337890625.8505859375-.337890625h3.6474609375c.404296875,0,.708984375.1123046875.9111328125.337890625.2021484375.224609375.3037109375.61328125.3037109375,1.166015625,0,.634765625-.095703125,1.0498046875-.2880859375,1.2431640625-.193359375.1953125-.501953125.2919921875-.9267578125.2919921875h-3.6474609375Z"/>
        <path class="cls-1" d="M235.6219863892,21.9974021912c-.28125.59375-.7080078125,1.0029296875-1.2802734375,1.2275390625-.572265625.2255859375-1.3427734375.337890625-2.3095703125.337890625h-2.826171875c-.4052734375,0-.708984375-.0966796875-.912109375-.2919921875-.2021484375-.193359375-.3037109375-.5771484375-.3037109375-1.150390625,0-.59375.095703125-1.0078125.2880859375-1.2431640625.193359375-.236328125.501953125-.353515625.927734375-.353515625h1.974609375c.365234375,0,.6435546875-.0556640625.8359375-.1669921875s.3349609375-.2822265625.42578125-.5146484375.146484375-.53515625.1669921875-.9091796875c.0205078125-.373046875.0302734375-.8330078125.0302734375-1.3779296875v-6.3017578125c0-.12109375.0556640625-.2021484375.166015625-.2421875s.2255859375-.060546875.3466796875-.060546875h2.5908203125c.2001953125,0,.30078125.1005859375.30078125.302734375v7.392578125c0,.60546875.2275390625,1.0703125.68359375,1.392578125.4560546875.32421875,1.068359375.4853515625,1.8388671875.4853515625h.5166015625c.4052734375,0,.708984375.1123046875.912109375.337890625.2021484375.224609375.3037109375.603515625.3037109375,1.1357421875,0,.59375-.0966796875,1.0029296875-.2890625,1.2275390625-.1923828125.2255859375-.5009765625.337890625-.9267578125.337890625-.7900390625,0-1.4794921875-.0966796875-2.06640625-.2919921875-.587890625-.193359375-1.052734375-.6181640625-1.39453125-1.2734375ZM230.9071426392,29.3977928162c-.2021484375,0-.3037109375-.1025390625-.3037109375-.306640625v-2.638671875c0-.2041015625.1015625-.306640625.3037109375-.306640625h2.5537109375c.2021484375,0,.3037109375.1025390625.3037109375.306640625v2.638671875c0,.2041015625-.1015625.306640625-.3037109375.306640625h-2.5537109375ZM234.8583145142,29.3977928162c-.2021484375,0-.3037109375-.1025390625-.3037109375-.306640625v-2.638671875c0-.2041015625.1015625-.306640625.3037109375-.306640625h2.552734375c.203125,0,.3046875.1025390625.3046875.306640625v2.638671875c0,.2041015625-.1015625.306640625-.3046875.306640625h-2.552734375Z"/>
        <path class="cls-1" d="M239.1131973267,23.5628318787c-.4052734375,0-.68359375-.1025390625-.8359375-.306640625-.1513671875-.205078125-.2275390625-.5830078125-.2275390625-1.1357421875,0-.6142578125.0712890625-1.0341796875.212890625-1.2587890625.1416015625-.2255859375.4248046875-.337890625.8505859375-.337890625h3.6474609375c.404296875,0,.708984375.1123046875.9111328125.337890625.2021484375.224609375.3037109375.61328125.3037109375,1.166015625,0,.634765625-.095703125,1.0498046875-.2880859375,1.2431640625-.193359375.1953125-.501953125.2919921875-.9267578125.2919921875h-3.6474609375Z"/>
        <path class="cls-1" d="M242.7606582642,23.5628318787c-.4052734375,0-.68359375-.1025390625-.8359375-.306640625-.1513671875-.205078125-.2275390625-.5830078125-.2275390625-1.1357421875,0-.6142578125.0712890625-1.0341796875.212890625-1.2587890625.1416015625-.2255859375.4248046875-.337890625.8505859375-.337890625h3.6474609375c.404296875,0,.708984375.1123046875.9111328125.337890625.2021484375.224609375.3037109375.61328125.3037109375,1.166015625,0,.634765625-.095703125,1.0498046875-.2880859375,1.2431640625-.193359375.1953125-.501953125.2919921875-.9267578125.2919921875h-3.6474609375Z"/>
        <path class="cls-1" d="M246.4071426392,23.5628318787c-.4052734375,0-.68359375-.1025390625-.8359375-.306640625-.1513671875-.205078125-.2275390625-.5830078125-.2275390625-1.1357421875,0-.6142578125.0712890625-1.0341796875.212890625-1.2587890625.1416015625-.2255859375.4248046875-.337890625.8505859375-.337890625h3.6474609375c.404296875,0,.708984375.1123046875.9111328125.337890625.2021484375.224609375.3037109375.61328125.3037109375,1.166015625,0,.634765625-.095703125,1.0498046875-.2880859375,1.2431640625-.193359375.1953125-.501953125.2919921875-.9267578125.2919921875h-3.6474609375Z"/>
        <path class="cls-1" d="M250.0546035767,23.5628318787c-.4052734375,0-.68359375-.1025390625-.8359375-.306640625-.1513671875-.205078125-.2275390625-.5830078125-.2275390625-1.1357421875,0-.6142578125.0712890625-1.0341796875.212890625-1.2587890625.1416015625-.2255859375.4248046875-.337890625.8505859375-.337890625h3.6474609375c.404296875,0,.708984375.1123046875.9111328125.337890625.2021484375.224609375.3037109375.61328125.3037109375,1.166015625,0,.634765625-.095703125,1.0498046875-.2880859375,1.2431640625-.193359375.1953125-.501953125.2919921875-.9267578125.2919921875h-3.6474609375Z"/>
        <path class="cls-1" d="M253.7010879517,23.5628318787c-.4052734375,0-.68359375-.1025390625-.8359375-.306640625-.1513671875-.205078125-.2275390625-.5830078125-.2275390625-1.1357421875,0-.6142578125.0712890625-1.0341796875.212890625-1.2587890625.1416015625-.2255859375.4248046875-.337890625.8505859375-.337890625h3.6474609375c.404296875,0,.708984375.1123046875.9111328125.337890625.2021484375.224609375.3037109375.61328125.3037109375,1.166015625,0,.634765625-.095703125,1.0498046875-.2880859375,1.2431640625-.193359375.1953125-.501953125.2919921875-.9267578125.2919921875h-3.6474609375Z"/>
        <path class="cls-1" d="M257.3485488892,23.5628318787c-.4052734375,0-.708984375-.1171875-.912109375-.3525390625-.2021484375-.2353515625-.3037109375-.6298828125-.3037109375-1.1826171875,0-.5927734375.0966796875-.9921875.2890625-1.197265625.1923828125-.2041015625.5009765625-.306640625.9267578125-.306640625h8.083984375c.52734375,0,.9521484375-.0400390625,1.2763671875-.12109375s.578125-.2216796875.759765625-.423828125c.1826171875-.201171875.3046875-.46875.365234375-.8017578125s.0908203125-.7412109375.0908203125-1.2255859375c0-.6455078125-.060546875-1.24609375-.1826171875-1.80078125-.12109375-.5546875-.32421875-1.033203125-.607421875-1.4375-.2841796875-.4033203125-.6533203125-.7158203125-1.109375-.9384765625-.4560546875-.2216796875-1.0283203125-.33203125-1.716796875-.33203125-.6689453125,0-1.2763671875.1318359375-1.82421875.39453125-.546875.263671875-1.033203125.6181640625-1.4580078125,1.0634765625-.142578125.142578125-.2841796875.15234375-.42578125.03125l-1.580078125-1.6416015625c-.1630859375-.162109375-.1826171875-.3037109375-.0615234375-.42578125.6279296875-.708984375,1.3779296875-1.2958984375,2.2490234375-1.7626953125.87109375-.4658203125,1.9345703125-.69921875,3.19140625-.69921875,1.357421875,0,2.4921875.2080078125,3.404296875.623046875.9111328125.416015625,1.640625.97265625,2.1875,1.671875.5478515625.69921875.9375,1.509765625,1.1708984375,2.431640625.232421875.921875.349609375,1.8994140625.349609375,2.9326171875,0,1.09375-.1025390625,1.99609375-.3046875,2.705078125s-.5009765625,1.271484375-.896484375,1.6865234375c-.39453125.416015625-.8916015625.7041015625-1.4892578125.8662109375s-1.291015625.2431640625-2.08203125.2431640625h-9.390625Z"/>
        <path class="cls-1" d="M293.0282363892,13.8069725037c0-.2021484375.1005859375-.3037109375.30078125-.3037109375h2.8017578125c.201171875,0,.3017578125.1005859375.3017578125.302734375v4.841796875c0,.60546875.2275390625,1.0693359375.68359375,1.3916015625.4560546875.3232421875,1.068359375.484375,1.8388671875.484375h.333984375c.4052734375,0,.708984375.1123046875.912109375.337890625.2021484375.224609375.3037109375.603515625.3037109375,1.1357421875,0,.59375-.0966796875,1.0029296875-.2890625,1.2275390625-.1923828125.2255859375-.5009765625.337890625-.9267578125.337890625-.607421875,0-1.150390625-.0615234375-1.6259765625-.1845703125-.4765625-.1220703125-.88671875-.388671875-1.23046875-.7978515625v.3349609375c0,1.15625-.177734375,2.169921875-.53125,3.04296875s-.859375,1.59765625-1.5166015625,2.1767578125c-.6572265625.578125-1.4404296875,1.0087890625-2.3505859375,1.29296875-.9091796875.2841796875-1.9208984375.42578125-3.033203125.42578125-1.0712890625,0-2.0576171875-.1416015625-2.95703125-.42578125-.8994140625-.283203125-1.6826171875-.7138671875-2.3505859375-1.291015625-.6669921875-.578125-1.1875-1.302734375-1.5615234375-2.1728515625-.375-.8720703125-.5615234375-1.8955078125-.5615234375-3.0703125,0-1.09375.171875-2.1875.5166015625-3.2822265625.3447265625-1.09375.7705078125-2.0361328125,1.2763671875-2.826171875.1015625-.1826171875.25390625-.2021484375.4560546875-.060546875l2.4619140625.97265625c.1015625.0400390625.1572265625.095703125.1669921875.1669921875.0107421875.0712890625-.0048828125.1474609375-.044921875.2275390625-.3251953125.5673828125-.6337890625,1.2314453125-.927734375,1.9912109375s-.4404296875,1.5947265625-.4404296875,2.5068359375c0,.7900390625.126953125,1.4541015625.3798828125,1.9912109375.2529296875.5361328125.5771484375.966796875.97265625,1.291015625s.8359375.5517578125,1.322265625.68359375.9619140625.1982421875,1.4287109375.1982421875c1.154296875,0,2.091796875-.3095703125,2.810546875-.9267578125.71875-.619140625,1.0791015625-1.6162109375,1.0791015625-2.994140625v-9.0263671875ZM288.4090957642,11.9837303162c-.203125,0-.3046875-.1025390625-.3046875-.306640625v-2.638671875c0-.2041015625.1015625-.306640625.3046875-.306640625h2.9169921875c.2021484375,0,.3037109375.1025390625.3037109375.306640625v2.638671875c0,.2041015625-.1015625.306640625-.3037109375.306640625h-2.9169921875Z"/>
        <path class="cls-1" d="M299.3202285767,23.5628318787c-.4052734375,0-.68359375-.1025390625-.8359375-.306640625-.1513671875-.205078125-.2275390625-.5830078125-.2275390625-1.1357421875,0-.6142578125.0712890625-1.0341796875.212890625-1.2587890625.1416015625-.2255859375.4248046875-.337890625.8505859375-.337890625h3.6474609375c.404296875,0,.708984375.1123046875.9111328125.337890625.2021484375.224609375.3037109375.61328125.3037109375,1.166015625,0,.634765625-.095703125,1.0498046875-.2880859375,1.2431640625-.193359375.1953125-.501953125.2919921875-.9267578125.2919921875h-3.6474609375Z"/>
        <path class="cls-1" d="M302.9667129517,23.5628318787c-.4052734375,0-.68359375-.1025390625-.8359375-.306640625-.1513671875-.205078125-.2275390625-.5830078125-.2275390625-1.1357421875,0-.6142578125.0712890625-1.0341796875.212890625-1.2587890625.1416015625-.2255859375.4248046875-.337890625.8505859375-.337890625h3.6474609375c.404296875,0,.708984375.1123046875.9111328125.337890625.2021484375.224609375.3037109375.61328125.3037109375,1.166015625,0,.634765625-.095703125,1.0498046875-.2880859375,1.2431640625-.193359375.1953125-.501953125.2919921875-.9267578125.2919921875h-3.6474609375Z"/>
        <path class="cls-1" d="M306.6141738892,23.5628318787c-.4052734375,0-.68359375-.1025390625-.8359375-.306640625-.1513671875-.205078125-.2275390625-.5830078125-.2275390625-1.1357421875,0-.6142578125.0712890625-1.0341796875.212890625-1.2587890625.1416015625-.2255859375.4248046875-.337890625.8505859375-.337890625h3.6474609375c.404296875,0,.708984375.1123046875.9111328125.337890625.2021484375.224609375.3037109375.61328125.3037109375,1.166015625,0,.634765625-.095703125,1.0498046875-.2880859375,1.2431640625-.193359375.1953125-.501953125.2919921875-.9267578125.2919921875h-3.6474609375Z"/>
        <path class="cls-1" d="M310.2606582642,23.5628318787c-.4052734375,0-.708984375-.0712890625-.912109375-.21484375-.2021484375-.1435546875-.3037109375-.4296875-.3037109375-.859375,0-.51171875.0966796875-.966796875.2890625-1.3662109375.1923828125-.3984375.5009765625-.5986328125.9267578125-.5986328125h1.4892578125c.505859375,0,.8759765625-.1162109375,1.109375-.3486328125.232421875-.2314453125.349609375-.6513671875.349609375-1.2568359375v-7.6650390625c0-.2021484375.099609375-.302734375.30078125-.302734375h2.8017578125c.2001953125,0,.30078125.1015625.30078125.3037109375v8.4794921875c0,1.3173828125-.2705078125,2.2841796875-.8134765625,2.90234375-.5419921875.6181640625-1.4453125.9267578125-2.7119140625.9267578125h-2.826171875ZM312.9354629517,29.3372459412c-.203125,0-.3046875-.1025390625-.3046875-.306640625v-2.638671875c0-.2041015625.1015625-.306640625.3046875-.306640625h2.9169921875c.2021484375,0,.3046875.1025390625.3046875.306640625v2.638671875c0,.2041015625-.1025390625.306640625-.3046875.306640625h-2.9169921875Z"/>
      </g>
    </g>
  </g>
</svg>